<?xml version="1.0" encoding="utf-8"?>
<!-- Generator: Adobe Illustrator 22.1.0, SVG Export Plug-In . SVG Version: 6.00 Build 0)  -->
<svg version="1.1" id="Слой_1" xmlns="http://www.w3.org/2000/svg" xmlns:xlink="http://www.w3.org/1999/xlink" x="0px" y="0px"
	 viewBox="0 0 201.5 122.8" style="enable-background:new 0 0 201.5 122.8;" xml:space="preserve">
<style type="text/css">
	.st0{fill:#EC1C24;}
	.st1{fill:#231F20;}
	.st2{fill:url(#SVGID_1_);}
	.st3{fill:url(#SVGID_2_);}
	.st4{fill:url(#SVGID_3_);}
	.st5{fill:url(#SVGID_4_);}
	.st6{fill:url(#SVGID_5_);}
	.st7{fill:url(#SVGID_6_);}
	.st8{fill:url(#SVGID_7_);}
	.st9{fill-rule:evenodd;clip-rule:evenodd;fill:#EC1C24;}
	.st10{fill-rule:evenodd;clip-rule:evenodd;fill:#FFFFFF;}
	.st11{fill:#FFD300;}
	.st12{fill:#FFFFFF;}
</style>
<g>
	<path class="st0" d="M24.1,101.5c-10.8,0-19.6-8.8-19.6-19.6l0,0c0-10.8,8.8-19.6,19.6-19.6l0,0h153.2c10.8,0,19.6,8.8,19.6,19.6
		l0,0c0,10.8-8.8,19.6-19.6,19.6l0,0H24.1L24.1,101.5z"/>
	<path class="st1" d="M12.9,70.6c-2.9,2.9-4.6,6.8-4.6,11.2l0,0c0,4.4,1.8,8.3,4.6,11.2l0,0c2.9,2.9,6.8,4.6,11.2,4.6l0,0h153.2
		c4.4,0,8.3-1.8,11.2-4.6l0,0c2.9-2.9,4.6-6.8,4.6-11.2l0,0c0-4.4-1.8-8.3-4.6-11.2l0,0c-2.9-2.9-6.8-4.6-11.2-4.6l0,0H24.1
		C19.7,66,15.8,67.8,12.9,70.6L12.9,70.6z"/>
	<g>
		<linearGradient id="SVGID_1_" gradientUnits="userSpaceOnUse" x1="31.3475" y1="73.7183" x2="31.3475" y2="89.9357">
			<stop  offset="8.241760e-02" style="stop-color:#FFD300"/>
			<stop  offset="0.2631" style="stop-color:#FECE02"/>
			<stop  offset="0.4843" style="stop-color:#FCBF08"/>
			<stop  offset="0.7267" style="stop-color:#F9A612"/>
			<stop  offset="0.9827" style="stop-color:#F4841F"/>
			<stop  offset="1" style="stop-color:#F48120"/>
		</linearGradient>
		<path class="st2" d="M42.1,88.4l-2.2-3.6c-2.1,0.8-4,1.1-6.2,1.1c-2.3,0-4.4-0.7-4.4-3.3v-1.7c0-2.2,2.1-3.1,4.5-3.1
			c2.6,0,4,0.3,6,1.1l2.2-3.6c-3.1-1.2-6-1.6-9.5-1.6c-7.8,0-11.9,3.4-11.9,7.1v1.9c0,3.9,3.3,7.2,11.8,7.2
			C35.9,89.9,39.2,89.5,42.1,88.4L42.1,88.4z"/>
		<linearGradient id="SVGID_2_" gradientUnits="userSpaceOnUse" x1="56.2213" y1="74.0197" x2="56.2213" y2="95.0638">
			<stop  offset="8.241760e-02" style="stop-color:#FFD300"/>
			<stop  offset="0.2631" style="stop-color:#FECE02"/>
			<stop  offset="0.4843" style="stop-color:#FCBF08"/>
			<stop  offset="0.7267" style="stop-color:#F9A612"/>
			<stop  offset="0.9827" style="stop-color:#F4841F"/>
			<stop  offset="1" style="stop-color:#F48120"/>
		</linearGradient>
		<path class="st3" d="M70.1,74h-9l-4.8,8.7L51.5,74h-9.1l9.7,14.8c-1.7,1.4-3.9,1.9-7.1,1.9h-0.6c0,0,2.4,4.4,3.1,4.3
			c6.4-0.4,10.6-2.4,13.8-7.5L70.1,74L70.1,74z"/>
		<linearGradient id="SVGID_3_" gradientUnits="userSpaceOnUse" x1="78.9509" y1="73.7183" x2="78.9509" y2="89.9357">
			<stop  offset="8.241760e-02" style="stop-color:#FFD300"/>
			<stop  offset="0.2631" style="stop-color:#FECE02"/>
			<stop  offset="0.4843" style="stop-color:#FCBF08"/>
			<stop  offset="0.7267" style="stop-color:#F9A612"/>
			<stop  offset="0.9827" style="stop-color:#F4841F"/>
			<stop  offset="1" style="stop-color:#F48120"/>
		</linearGradient>
		<path class="st4" d="M89.7,88.4l-2.2-3.6c-2.1,0.8-4,1.1-6.2,1.1c-2.3,0-4.4-0.7-4.4-3.3v-1.7c0-2.2,2.1-3.1,4.5-3.1
			c2.6,0,4,0.3,6,1.1l2.2-3.6c-3.1-1.2-6-1.6-9.5-1.6c-7.8,0-11.9,3.4-11.9,7.1v1.9c0,3.9,3.3,7.2,11.8,7.2
			C83.5,89.9,86.8,89.5,89.7,88.4L89.7,88.4z"/>
		<linearGradient id="SVGID_4_" gradientUnits="userSpaceOnUse" x1="98.0783" y1="68.7574" x2="98.0783" y2="89.6647">
			<stop  offset="8.241760e-02" style="stop-color:#FFD300"/>
			<stop  offset="0.2631" style="stop-color:#FECE02"/>
			<stop  offset="0.4843" style="stop-color:#FCBF08"/>
			<stop  offset="0.7267" style="stop-color:#F9A612"/>
			<stop  offset="0.9827" style="stop-color:#F4841F"/>
			<stop  offset="1" style="stop-color:#F48120"/>
		</linearGradient>
		<path class="st5" d="M104.4,89.7v-4.2h-2.2c-1.2,0-1.7-0.4-1.7-1V68.8h-8.7v16.1c0,2.7,2.5,4.8,8.9,4.8H104.4L104.4,89.7z"/>
		<linearGradient id="SVGID_5_" gradientUnits="userSpaceOnUse" x1="118.1934" y1="73.7183" x2="118.1934" y2="89.9357">
			<stop  offset="8.241760e-02" style="stop-color:#FFD300"/>
			<stop  offset="0.2631" style="stop-color:#FECE02"/>
			<stop  offset="0.4843" style="stop-color:#FCBF08"/>
			<stop  offset="0.7267" style="stop-color:#F9A612"/>
			<stop  offset="0.9827" style="stop-color:#F4841F"/>
			<stop  offset="1" style="stop-color:#F48120"/>
		</linearGradient>
		<path class="st6" d="M131.2,83.5v-3.4c0-3.5-4.1-6.4-13-6.4c-8.9,0-13,2.9-13,6.4v3.4c0,3.5,4.1,6.4,13,6.4
			C127.1,89.9,131.2,87,131.2,83.5L131.2,83.5z M121.9,83.5c0,1.5-1.3,2.2-3.7,2.2s-3.7-0.8-3.7-2.2v-3.4c0-1.5,1.2-2.2,3.7-2.2
			s3.7,0.8,3.7,2.2V83.5L121.9,83.5z"/>
		<linearGradient id="SVGID_6_" gradientUnits="userSpaceOnUse" x1="144.7771" y1="73.7183" x2="144.7771" y2="94.505">
			<stop  offset="8.241760e-02" style="stop-color:#FFD300"/>
			<stop  offset="0.2631" style="stop-color:#FECE02"/>
			<stop  offset="0.4843" style="stop-color:#FCBF08"/>
			<stop  offset="0.7267" style="stop-color:#F9A612"/>
			<stop  offset="0.9827" style="stop-color:#F4841F"/>
			<stop  offset="1" style="stop-color:#F48120"/>
		</linearGradient>
		<path class="st7" d="M156.9,82.9v-2.2c0-4.6-2.4-7-10-7c-2.2,0-4.1,0.5-5.4,1.1V74h-8.7v20.5h8.7v-5.3c1.5,0.4,3.6,0.7,5.5,0.7
			C154.6,89.9,156.9,87.5,156.9,82.9L156.9,82.9z M148.2,83.7c0,1.5-0.8,2.3-3.5,2.3c-1,0-2.3-0.2-3.3-0.5v-7
			c0.9-0.4,2.1-0.8,3.3-0.8c2.6,0,3.5,0.7,3.5,2.2V83.7L148.2,83.7z"/>
		<linearGradient id="SVGID_7_" gradientUnits="userSpaceOnUse" x1="168.9734" y1="73.7451" x2="168.9734" y2="89.9629">
			<stop  offset="8.241760e-02" style="stop-color:#FFD300"/>
			<stop  offset="0.2631" style="stop-color:#FECE02"/>
			<stop  offset="0.4843" style="stop-color:#FCBF08"/>
			<stop  offset="0.7267" style="stop-color:#F9A612"/>
			<stop  offset="0.9827" style="stop-color:#F4841F"/>
			<stop  offset="1" style="stop-color:#F48120"/>
		</linearGradient>
		<path class="st8" d="M180.5,84.6c0-2.5-2.2-4.1-7.8-4.6l-3.4-0.3c-2.5-0.2-2.9-0.5-2.9-1c0-0.6,1.2-1,3.5-1c2.3,0,4.8,0.2,7.4,1.1
			l2.9-3.4c-3.7-1.3-7.4-1.6-10.6-1.6c-5.8,0-11.1,1.7-11.1,5.2c0,2.8,2.7,4.1,7.4,4.5l3.5,0.3c2.2,0.2,3.1,0.3,3.1,1.1
			c0,0.8-1.7,1.2-4.4,1.2c-3.4,0-5.8-0.5-7.9-1.3l-2.6,3.6c3.4,1.2,7.4,1.5,11,1.5C174.7,90,180.5,88.4,180.5,84.6L180.5,84.6z"/>
	</g>
	<g>
		<path class="st1" d="M177.5,63c0,0,1.4-5.9-6.9-9.3c0,0-0.5-0.1-0.8-1.2c0,0-0.2-3.9-6-5.5c0,0-0.4,0-0.8-1.6
			c0,0-3.1-10.9-15.3-9.6c-0.2-0.1-5.8-2.7-9.4-3.3c-0.1,0-0.2-0.1-0.3-0.1c0,0,0.1,0,0.1,0l0-0.8c0-0.8,0.3-0.9,0.3-0.9
			c0.4-0.5,0.4-1.9,0.4-1.9c0-1,0.4-1.5,0.4-1.5c0.6-1,1.7-2.4,1.7-2.4c1-1.6,0.8-2.4,0.8-2.4c1.1-0.1,1.3-1.4,1.3-1.4
			c0.4-1.1,0.7-2.1,0.7-2.1c0.4-2.1,0.3-3.3,0.3-3.3c0-1-0.2-0.6-0.4-0.5c-0.3,0.1-0.5,0.2-1.1,0.4c-0.6,0.1-0.6-0.1-0.6-0.1
			c0-3.3-1.8-5.3-1.8-5.3c-2-3-5.3-3.5-5.3-3.5c-0.9-0.1-1.1-0.6-1.3-0.8c-0.3-0.3-1.9-3-1.9-3c-0.5-0.9-0.9-0.5-1.2-0.2
			c-0.1,0.1-2.3,2.9-2.3,2.9c-0.9,1-2.3,1.4-2.3,1.4c-2.2,0.7-4.8,2.1-4.8,2.1c-2.5,1.2-3.4,4-3.4,4c-0.2,0.8-0.6,0.4-0.6,0.4
			l-0.9-0.7c-0.3-0.2-0.7-0.6-0.7-0.6c-0.4,0.1-0.8,1.4-0.8,1.4c-0.7,3.7,0.9,5.3,0.9,5.3c-1,4.3,1,6.3,1,6.3
			c0.3,0.4,0.3,1.1,0.3,1.5c-0.2,0.7-1,2.9-2.8,3.9c0,0-2.6,1.9-4.5,3.6c0,0-3.4,2.4-6.2,4.1c0,0-3.3,1.2-5.3,6c0,0-4,5.2-1.8,9.6
			c0,0,0.1,3.7,1.9,6.4c1.8,2.8,1.6,3.5,5.8,6c0,0,2.5,3.4,10.7,5.4c0,0,5.6,1.5,11.5,1.2h46.9c0,0,4.8-1.6,4.3-4.7
			c0-0.1,0-0.2,0-0.3l-0.1-0.5c0-0.4-0.1-1-0.4-2.1c0.1-0.2,0.2-0.4,0.3-0.7C177.1,64.2,177.1,63.9,177.5,63z"/>
		<path class="st9" d="M121.6,16.8c0,0,3.5,1.4,7.4,1.7c0,0,2.8,0.3,6.3-0.2c0,0,1.7-0.3,3,0.3c0,0,1.2,0.6,1.2,0.9
			c0,0,0.9,0.6-1,0.4c0,0-0.8-0.1-1.2,0.5c0,0-1.6,3.5-5.7,2.6l-0.3-0.3c-0.6,0.1-1.4,0-2.2,0l0.1,0.1c0,0,0.1,0.2-1.7,0.3
			c0,0,0.3,1,0.2,1.3c0,0-0.6,0.1-1.2,0.7c0,0-2.3-0.2-2.1,1c0,0,0.3,1.1,1.6,0.2c0,0,0.8-0.5,1.2,0.2c0,0,0.7,0.9,2.4,0.6
			c0,0,1.2-0.2,1.8-0.7c0,0,0.4-0.3,0.8,0.2c0,0,1.3,0.8,0.7,1.5c0,0-0.4,0.4-1.7-0.1c0,0-1.2-0.4-2,0.1c0,0-0.9,0.4-1.8-0.3
			c0,0-0.3-0.3-1.2-0.1c0,0-1.6,0.2-2.3-0.1c0,0,0.5,1-0.8,1.4c0,0,1,0.4,2.8-0.3c0,0,0.9-0.2,1.5,0.1c0,0,0.4,0.5,2,0.3
			c0,0,1.1-0.4,1.3,0.3c0,0,0.7,0.7,1.4,0.7l0.8,0c0,0,0.4,0.1,0.5,0.2c0.1,0.1-0.2,0.5-2,0.4c0,0-0.5,0.1-2.5-0.7
			c0,0-1.6-0.3-2.4-0.1c0,0-0.4,0.1-2.3,0.2c0,0-1,0.1-2.4-0.8c0,0-1.5-0.9-1.2,0.1c0,0,0.1,1.5,0.6,2.4c0.5,0.9,1.3,1.6,2,1.8
			c0,0,1.3,0.4,3.4,0c0,0,1.9-0.4,2.4-0.2c0,0,0.9,0.6,2.9,0.4c0,0,1.6-0.2,1.7-0.3c0.1,0,2.1-1.4,2.7-2.7c0,0,0.3-1.6,0.1-2.7
			c0,0-0.3-1-0.4-1.2c0,0-0.2-0.1,0.3-0.5l1-0.6c0,0,2.2-1.4,3-3.1c0,0,1-1.6,0.7-2.8c0,0,1.4-2.3,0.9-2.5c0,0-1.1,1.2-1.1,0.4
			c0,0,0.3-2.3-0.8-4.8c0,0-1.2-3.5-3.9-4.4c0,0-1.6-0.4-2.6-1c0,0-1.7-1.1-2.5-2.4c-0.2-0.3-0.3-0.3-0.9,1.2l-1.7,3.4
			c0,0-0.9,2.3,1,2.6c0,0,1.4,0.2,3.1-0.6c0,0,0.8-0.2,0.1,1c0,0-2.6,1.5-1.9,2.2c0,0,1.5,2.6-4.9,2.1c0,0-1.3-0.3-3-0.3
			C122.5,16.5,120.9,16.4,121.6,16.8z M132.1,31.9c-0.5,1-1.6,0.1-1.6,0.1c-0.3-0.3-2.2-0.5-2.5-0.6c-0.3-0.1-2.4,0.1-2.4,0.1
			c-2.3,0.5-2.4-0.4-2.4-0.4c-0.4-0.7,1.3-0.3,1.3-0.3c1.8,0.1,1.8-0.2,2.1-0.3c1.6-0.4,2.3,0.2,2.4,0.2c0.6,0.4,2.1,0.9,2.1,0.9
			C132.6,31.6,132.1,31.9,132.1,31.9z M126.1,67.3c-2.2-1.8-8.1-3.1-8.1-3.1c-4.2-1.3-3.7-0.9-3.7-0.9c2.1,2.1,4.9,2.4,5.2,2.5
			c2,0.4,2.9-0.1,5.4,2.2c1.1,0.9,2.4,1.4,3.6,1.7C127.1,68.4,126.1,67.3,126.1,67.3z M121.6,24.2c0,0,0.3,0.4,1.5,0.1
			c1.2-0.3,1.2-0.9,0.5-1.2c-0.2-0.1-0.8-0.3-1.2-1.1c0,0-0.4-0.6-2.3-0.3l-0.6,0.7l1.2,0.9L121.6,24.2z M175.1,64.7
			c0.5-1.7,0-3,0-3c-0.6-4.5-6.2-6.5-6.2-6.5c-1.9-0.9-1.7-1.5-1.7-1.5l0.6-0.2c-0.6-3.4-6.3-5.3-6.3-5.3c-1.7-0.3-1.6-1.3-1.6-1.3
			c0.4-0.5,0.2-1.6,0.2-1.6c-2.7-9.9-11.5-7.7-11.5-7.7c-2.1,0.4-1.8,0-1.8,0c-0.6-0.7-2.4-1.2-2.4-1.2c-3-1.8-6.3-2-6.3-2
			c-2.3-0.4-1.9-1-1.9-1.1c-0.1,0.1-0.7,0.7-0.7,0.7c0.2,0.9-0.3,1.4-0.3,1.4c-0.5,1.1-3.2,2.5-3.2,2.5c-0.7,0.5-0.9-1-0.9-1
			c-0.1-1,0.5-1.6,0.5-1.6c0.6-0.7-1.3,0.4-1.3,0.4c-1.3,0.7-2.2,0.1-2.2,0.1c-1.5-0.3,0.5,1.1,0.9,1.8c0.6,0.7,0.1,1.3,0.1,1.3
			c-0.8,0.8-2.6-0.5-2.6-0.5c-0.5-0.2-3.2-1.7-3.2-1.7c-0.3,0.8,0.8,1.4,0.8,1.4c3.6,3.3,8,1.6,8,1.6c3-0.9,4.8-3.2,4.8-3.2
			c0.2,0.1,1.9,0.3,2.1,0.3c1.1,0.3,4.6,1.3,4.6,1.3l1.8,0.8c1.1,0.5,0.2,0.7,0.2,0.7c-1.7,0.3-5.5-0.9-5.5-0.9
			c-2.5-0.3-3,1.3-3,1.3c-0.3,3.1,1.1,6.1,1.1,6.1c0.7,1,0.4,1.4,0.4,1.4c-2.6-1-4-2.8-4-2.8c-0.4-0.8-1.9-1.3-1.9-1.3
			c-2.6-1.2-5-0.8-5-0.8c-0.9,0.9-2,1.3-2,1.3c0.2,1.8-0.7,0.3-0.7,0.3c-0.9-0.9-3.1-1.9-3.1-1.9c-2.8-2.2-7-3.1-7-3.1
			c-5-1.1-4.4-0.2-4.4-0.2c3.1,0.5,4.2,1.2,4.2,1.2c4,1.4,3.9,1.8,4.1,2.1c2.1,3.4,0.2,1.8,0.2,1.8c-1.2-1.2-4.1-1.9-4.1-1.9
			c-2.4-0.7-0.2,0.4,0,0.5c3.2,1.5,5.3,3.9,5.3,3.9c1.4,2.3,1.3,4.4,1.3,4.4c2.2,1,4,2.5,4,2.5c3.9,2.8,3.4,3.3,3.4,3.3
			c-1.5-0.6-4.6-1.5-4.6-1.5c-2.6-1.4-4.3-1.2-4.3-1.2c-1.5-0.2-1.9-0.8-2.7-1.1c0,0-0.1,0-0.1-0.1c-2.1-1.3-4.1-2.1-4.1-2.1
			c-1.6-0.6-0.2,0.4-0.2,0.4c1.5,1.2,2.7,2.5,2.7,2.5c1.2,1.4,0,1.1,0,1.1c-1.4,0-2.3,0.7-2.3,0.7c-1.1,0.9-2.9,0.2-2.9,0.2
			c-1.4-0.1-0.9,0-0.9,0c1.9,1.6,3.5,0.9,4,1.1c3.5-0.2,6.2,0.3,6.2,0.3c2.9,0.5,5.9,2,5.9,2c2.3,1.2,1,2,1.2,2.1
			c-0.5,0.3-0.2,0.5-1.7,0c-1.5-0.5-2.3-0.6-2.3-0.6c-2.6-0.1-4.5-0.7-5.2-0.8c-0.7-0.1-1.2,0.2-1.2,0.2c-1.4,0.2-0.6,0.3-0.4,0.4
			c0.1,0.1,1.4,0.6,1.4,0.6c1.9,1.4,4.8,1.5,4.8,1.5c4.6,0.9,4.7,2.2,4.7,2.2c5.1,3.8,4.7,2.9,4.7,2.9c0.3,0,0.4-0.3,1.9-0.3
			c0.3,0,3.3-0.4,3.3-0.4c2.6-0.5,2.4-0.3,2.7-0.3c-6.4-1.7-8-3.7-8-3.7l0.5-0.4c0.8-0.6,1.3,0,1.3,0c1,0.2,1.6,0.3,1.6,0.3
			c5.7,0.3,8.8-0.8,8.8-0.8c4.6-1.2,5.7-2.6,5.7-2.6l0.6,0.2c0.6,0.3,0.3,0.5,0.3,0.6c-1.9,3.1-5.3,5.5-5.2,5.5c2.6-0.5,4-1.4,4-1.4
			c3.7-2.2,6.5-5.4,6.5-5.4c1.4-1,1.2,0,1.2,0c-0.6,1.7-4,5.1-4,5.1c5.6,2.3,8.8,1.3,8.8,1.3l1.3-0.7c2.2-1.7-4.1-3.7-4.1-3.7
			c-1.2-0.1-0.3-1-0.3-1c0.8-1,5.7,1.2,5.7,1.2c4.3,2.4,4.8,4,4.8,4c2-0.4,2.8-1,2.8-1c0.9-0.5,1.6-1.6,1.6-1.6c0.7,0.2,0.5,1,0.5,1
			l-0.3,0.7c-0.2,1.2,0.7,1.8,1,2c0.1-0.2,0.1-0.5-0.1-0.9C175,65.2,175,64.9,175.1,64.7z M154.8,40.5c0,0,2.7,3,1.8,5.4l-1-0.2
			c0,0-0.8-3.6-5.6-5.1c0,0,0.2-0.7-0.1-0.9c-0.3-0.2-1-0.9-1-0.9S153.1,38,154.8,40.5z M165.8,56.5c-5.6-2.8-9.4,0.8-9.4,0.8
			l-0.2-0.5c0,0,0.3-0.7,0.3-0.9c0-0.2-1.8-1.9-1.8-1.9c-0.9-1.1,0.8-0.4,0.8-0.4c1.1,0.6,2.5,1.4,2.5,1.4l1-0.5
			c-6.2-5.9-12.4,1.1-12.4,1.3c0,0.2-0.2,0.2-0.2,0.2c-1.8-0.1-6.8,0-6.8,0c-6.4,0.6-8.9,4.1-8.9,4.1s-1.2,0.3-1.1,0.1
			c0.1-0.2,0.9-1.2,0.9-1.2c0.3-0.7,0.3-1.9,0.3-1.9c-2.1-0.7-1.9-2.7-1.9-2.7c-3.3-1.4-1.8-2.4-1.8-2.4c-1.9-0.1-2.5-1.4-2.5-1.4
			c-1.2-0.9-0.3-1.4-0.3-1.4c-1.6-0.8-0.6-2.1-0.6-2.1c0-0.7-1.1-1.5-1.1-1.5v-0.9c1.9,1.2,2.2,2.4,2.2,2.4c2.1-0.3,3.8-0.2,3.8-0.2
			c3.7,0.1,3.4,1.5,3.5,1.6c0.5,0,1.6,0.4,1.6,0.4c1.5,0.7,1.6,1.6,1.6,1.6l0,0.4c2.6,0.4,2.2,2.1,2.2,2.1c0.5-0.1,1.3,0.2,1.3,0.2
			c0.6-0.6,1.4-2.1,1.4-2.1c0.5-0.9-0.2-1.7-0.2-1.7l0.6-0.2c0.5,0.6,2.3,1.7,2.3,1.7c3.2,2.2,4.3,2.3,4.3,2.3
			c2.5-2.1,5.7-1.9,5.7-1.9c0.9-6.9-5.4-9.9-5.4-9.9c-1.3-0.8-0.1-0.7-0.1-0.7c4.3,0.5,8.5,7.4,8.5,7.4c2.3,0.7,5.4,3.4,5.6,3.6
			c1.2,0.3-1-1.4-1-1.4c-0.6-0.7,0-0.8,0-0.8c3.1,0.9,5,5.4,5,5.4l1.2,1.4H165.8z M136.4,54.6c-0.1-0.1-2.5,0-2.6,0
			c-0.2,0-2.2-0.1-2.1,0.1c0,0,0.1,1.3,3,1.1C134.6,55.8,138.1,55.6,136.4,54.6z M130.2,49.1c0,0-0.7-0.9-3.9-0.7
			c0,0-0.4,0.9,1.3,1.1C127.6,49.5,130.5,49.5,130.2,49.1z M133.6,51c-0.3-1.3-1.9-1-1.9-1c-1.2,0.2-4.3,0.3-4.3,0.3
			c-1-0.2-0.5,0.3-0.5,0.3c1.5,1.4,4.1,0.6,4.2,0.6C132.5,51.1,133.6,51,133.6,51z M132.8,53.5c0,0,1.4-0.5,2.2-0.3
			c0,0,0.9-0.1,0-0.9c-0.2-0.1-0.6-0.7-2.5-0.2c-0.2,0-1.7,0.5-2.8,0.4c0,0-0.6,0.1,0,0.4C129.7,52.9,130.8,54.1,132.8,53.5z"/>
		<path class="st10" d="M122.8,19.2c0,0,1,0.1,2.4,0.6c1.9,0.5,1.7,0.3,3.4,0.4c1.1,0.1,2.3,0.2,4,0.1c0.8,0,1.8-0.6,3.5-0.6
			c0,0-0.8,3.7-7.5,2.9C122.7,21.9,122.7,19.1,122.8,19.2z"/>
		<path class="st11" d="M126.8,20.1c0,0,0.1,2.2,2.7,2.3c2.9,0.1,3-2.1,3-2.1c0,0-1.1,0.1-3.2-0.1C127.7,20.1,126.8,20.1,126.8,20.1
			z"/>
	</g>
	<path class="st12" d="M59.6,117.4c-1.7,0-2.9-0.2-4.1-0.8l0.5-1.3c0.9,0.5,1.9,0.8,3.5,0.8c2.2,0,3.2-0.9,3.2-2.3
		c0-2.1-2.2-1.9-4.3-2.3c-1.6-0.3-2.8-1.1-2.8-3.1c0-2.2,1.8-3.5,4.2-3.5c1.4,0,2.6,0.1,3.7,0.8L63,107c-0.9-0.5-1.8-0.7-3-0.7
		c-1.7,0-2.7,0.9-2.7,2.1c0,1.8,1.9,1.8,3.8,2.1c1.9,0.3,3.3,1,3.3,3.3C64.3,116.1,62.5,117.4,59.6,117.4z"/>
	<path class="st12" d="M67.2,113.5v0.5c0,1.3,0.6,2.3,2.2,2.3c1.1,0,1.9-0.2,2.8-0.7l0.4,1.1c-0.9,0.5-2.1,0.8-3.2,0.8
		c-2.6,0-3.6-1.6-3.6-3.5v-1.7c0-1.8,1-3.4,3.6-3.4c2.7,0,3.6,1.6,3.6,3.4v1.2H67.2z M71.6,112.2c0-1.3-0.6-2.2-2.2-2.2
		c-1.6,0-2.2,0.9-2.2,2.2v0.2h4.3V112.2z"/>
	<path class="st12" d="M77.9,117.4c-2.5,0-3.5-1.6-3.5-3.7v-1.1c0-2,1.2-3.7,3.5-3.7c0.8,0,1.8,0.1,2.7,0.7l-0.4,1.1
		c-0.7-0.4-1.5-0.6-2.2-0.6c-1.4,0-2.2,1-2.2,2.6v1.1c0,1.7,0.8,2.6,2.2,2.6c0.8,0,1.5-0.2,2.2-0.6l0.4,1.1
		C79.8,117.3,78.8,117.4,77.9,117.4z"/>
	<path class="st12" d="M87.8,117.3v-0.9c-0.6,0.6-1.5,1-2.5,1c-2.2,0-3.1-1.2-3.1-3.1V109h1.4v5c0,1.5,0.5,2.2,2,2.2
		c1,0,1.8-0.7,2.1-1.2v-6h1.4v8.2H87.8z"/>
	<path class="st12" d="M96.9,110.4c-0.5-0.3-1-0.3-1.6-0.3c-1.2,0-1.9,0.8-2.1,1.6v5.6h-1.4V109h1.4v1c0.5-0.9,1.5-1.2,2.4-1.2
		c0.8,0,1.4,0.1,1.9,0.4L96.9,110.4z"/>
	<path class="st12" d="M99.2,106.7c-0.5,0-0.8-0.4-0.8-0.8c0-0.5,0.4-0.8,0.8-0.8c0.5,0,0.8,0.4,0.8,0.8
		C100.1,106.4,99.7,106.7,99.2,106.7z M98.5,117.3V109h1.4v8.2H98.5z"/>
	<path class="st12" d="M104.9,117.3c-1.6,0-2.2-0.9-2.2-2.3v-4.9h-1.1v-1h1.1v-2.5h1.4v2.5h1.7v1H104v4.9c0,0.7,0.3,1.2,1.1,1.2h1
		v1.1H104.9z"/>
	<path class="st12" d="M111.5,116.6c-1.1,3-2.4,4.2-4.6,4.2h-0.3v-1.2h0.3c1.2,0,2.1-0.6,2.9-2l-3.4-8.4h1.5l2.6,6.7l2.4-6.7h1.5
		L111.5,116.6z"/>
	<path class="st12" d="M123.6,117.4c-1.7,0-2.9-0.2-4.1-0.8l0.5-1.3c0.9,0.5,1.9,0.8,3.5,0.8c2.2,0,3.2-0.9,3.2-2.3
		c0-2.1-2.2-1.9-4.3-2.3c-1.6-0.3-2.8-1.1-2.8-3.1c0-2.2,1.8-3.5,4.2-3.5c1.4,0,2.6,0.1,3.7,0.8l-0.6,1.2c-0.9-0.5-1.8-0.7-3-0.7
		c-1.7,0-2.7,0.9-2.7,2.1c0,1.8,1.9,1.8,3.8,2.1c1.9,0.3,3.3,1,3.3,3.3C128.2,116.1,126.4,117.4,123.6,117.4z"/>
	<path class="st12" d="M133.6,116.6c-1.1,3-2.4,4.2-4.6,4.2h-0.3v-1.2h0.3c1.2,0,2.1-0.6,2.9-2l-3.4-8.4h1.5l2.6,6.7l2.4-6.7h1.5
		L133.6,116.6z"/>
	<path class="st12" d="M140.4,117.4c-1.3,0-2.2-0.2-3.2-0.7l0.5-1.1c0.8,0.5,1.7,0.7,2.6,0.7c1.4,0,2.3-0.5,2.3-1.4
		c0-0.8-0.5-1-1.5-1.2l-1.3-0.2c-1.6-0.3-2.4-0.9-2.4-2.2c0-1.6,1.3-2.5,3.1-2.5c1,0,2.1,0.2,2.9,0.7l-0.5,1
		c-0.8-0.5-1.5-0.6-2.3-0.6c-1.2,0-1.9,0.5-1.9,1.3c0,0.7,0.4,1,1.5,1.2l1.2,0.2c1.5,0.2,2.5,0.7,2.5,2.3
		C143.9,116.5,142.5,117.4,140.4,117.4z"/>
	<path class="st12" d="M148.3,117.3c-1.6,0-2.2-0.9-2.2-2.3v-4.9h-1.1v-1h1.1v-2.5h1.4v2.5h1.7v1h-1.7v4.9c0,0.7,0.3,1.2,1.1,1.2h1
		v1.1H148.3z"/>
	<path class="st12" d="M151.8,113.5v0.5c0,1.3,0.6,2.3,2.2,2.3c1.1,0,1.9-0.2,2.8-0.7l0.4,1.1c-0.9,0.5-2.1,0.8-3.2,0.8
		c-2.6,0-3.6-1.6-3.6-3.5v-1.7c0-1.8,1-3.4,3.6-3.4c2.7,0,3.6,1.6,3.6,3.4v1.2H151.8z M156.2,112.2c0-1.3-0.6-2.2-2.2-2.2
		c-1.6,0-2.2,0.9-2.2,2.2v0.2h4.3V112.2z"/>
	<path class="st12" d="M170.7,117.3v-5.1c0-1.5-0.5-2.1-2-2.1c-1.2,0-1.9,0.8-2.1,1.3v5.9h-1.4v-5.1c0-1.5-0.5-2.1-2-2.1
		c-1,0-1.8,0.7-2.1,1.1v6.1h-1.4V109h1.4v0.8c0.6-0.6,1.6-1,2.4-1c1.4,0,2.2,0.4,2.7,1.2c0.7-0.8,1.6-1.2,2.8-1.2
		c2.2,0,3.1,1.1,3.1,3v5.4H170.7z"/>
	<path class="st12" d="M177.2,117.4c-1.3,0-2.2-0.2-3.2-0.7l0.5-1.1c0.8,0.5,1.7,0.7,2.6,0.7c1.4,0,2.3-0.5,2.3-1.4
		c0-0.8-0.5-1-1.5-1.2l-1.3-0.2c-1.6-0.3-2.4-0.9-2.4-2.2c0-1.6,1.3-2.5,3.1-2.5c1,0,2.1,0.2,2.9,0.7l-0.5,1
		c-0.8-0.5-1.5-0.6-2.3-0.6c-1.2,0-1.9,0.5-1.9,1.3c0,0.7,0.4,1,1.5,1.2l1.2,0.2c1.5,0.2,2.5,0.7,2.5,2.3
		C180.7,116.5,179.3,117.4,177.2,117.4z"/>
</g>
</svg>
