<?xml version="1.0" encoding="utf-8"?>
<!-- Generator: Adobe Illustrator 22.1.0, SVG Export Plug-In . SVG Version: 6.00 Build 0)  -->
<svg version="1.1" id="Слой_1" xmlns="http://www.w3.org/2000/svg" xmlns:xlink="http://www.w3.org/1999/xlink" x="0px" y="0px"
	 viewBox="0 0 201.5 38.2" style="enable-background:new 0 0 201.5 38.2;" xml:space="preserve">
<style type="text/css">
	.st0{fill:#FFFFFF;}
	.st1{fill:#EE3224;}
</style>
<g>
	<g>
		<g>
			<path class="st0" d="M60.8,8.5c1.3,0.6,2.3,1.4,3,2.5s1,2.3,1,3.7c0,0.6-0.1,1.3-0.2,1.8c-0.3,1.7-1.1,3.3-2.2,4.6
				c-1.1,1.4-2.5,2.4-4.2,3.2c-1.7,0.8-3.6,1.2-5.7,1.2h-7.8l3.5-17.9H56C57.9,7.6,59.4,7.9,60.8,8.5z M57,19.9
				c1.1-0.8,1.7-1.9,2-3.4c0.1-0.3,0.1-0.7,0.1-1.1c0-1.1-0.4-2-1.1-2.6S56.2,12,54.8,12h-1.9l-1.8,9.2H53
				C54.6,21.1,55.9,20.7,57,19.9z"/>
			<path class="st0" d="M86.8,7.6l-9.3,12.2l-1.1,5.7h-5.5l1.1-5.7L67.4,7.6h6.3l2.1,6.9l4.8-6.9H86.8z"/>
			<path class="st0" d="M103.3,25.5h-5.5l-5.3-10l-2,10H85l3.5-17.9H94l5.4,10.1l2-10.1h5.5L103.3,25.5z"/>
			<path class="st0" d="M119.5,22.6h-7l-1.6,2.9h-5.8l10.7-17.9h6.3l3.7,17.9H120L119.5,22.6z M118.9,18.8l-1-5.8l-3.3,5.8H118.9z"
				/>
			<path class="st0" d="M154.2,7.6l-3.5,17.9h-5.5l1.9-9.9l-5.7,9.9h-4.6l-1.8-9.9l-1.9,9.9h-5.5l3.5-17.9h6.6l2.7,11.6l7.1-11.6
				H154.2z"/>
			<path class="st0" d="M157,11.8c1.1-1.4,2.4-2.4,4.1-3.2c1.6-0.8,3.4-1.2,5.4-1.2c1.6,0,3,0.3,4.3,0.8c1.2,0.5,2.2,1.3,2.8,2.3
				c0.7,1,1,2.2,1.1,3.5h-5.9c-0.2-0.7-0.6-1.2-1.2-1.5c-0.6-0.4-1.3-0.5-2.1-0.5c-1.3,0-2.4,0.4-3.3,1.2c-0.9,0.8-1.5,1.9-1.8,3.3
				c-0.1,0.4-0.1,0.7-0.1,1.1c0,1,0.3,1.9,0.9,2.5c0.6,0.6,1.4,0.9,2.5,0.9c0.8,0,1.6-0.2,2.3-0.5c0.7-0.4,1.3-0.9,1.8-1.5h5.9
				c-0.9,2-2.3,3.7-4.2,4.9c-1.9,1.2-4.1,1.8-6.6,1.8c-1.7,0-3.2-0.3-4.4-0.9c-1.2-0.6-2.2-1.4-2.8-2.5c-0.7-1.1-1-2.3-1-3.7
				c0-0.7,0.1-1.3,0.2-2C155.2,14.8,156,13.2,157,11.8z"/>
			<path class="st0" d="M180.2,24.7c-1.3-0.6-2.3-1.5-2.9-2.6c-0.7-1.1-1-2.4-1-3.9c0-2.1,0.5-4,1.5-5.6c1-1.6,2.4-2.9,4.1-3.8
				c1.8-0.9,3.8-1.4,6.1-1.4c1.7,0,3.2,0.3,4.5,0.9s2.3,1.5,3,2.6c0.7,1.1,1,2.4,1,3.9c0,2.1-0.5,4-1.5,5.6c-1,1.7-2.4,2.9-4.1,3.9
				c-1.8,0.9-3.8,1.4-6.1,1.4C183,25.7,181.5,25.4,180.2,24.7z M188.4,20.3c0.8-0.5,1.5-1.2,1.9-2.1c0.4-0.9,0.7-1.8,0.7-2.8
				c0-1.1-0.3-1.9-1-2.5c-0.6-0.6-1.6-0.9-2.8-0.9c-1.1,0-2.1,0.3-2.9,0.8s-1.5,1.2-1.9,2.1c-0.4,0.9-0.7,1.8-0.7,2.8
				c0,1.1,0.3,1.9,1,2.5c0.7,0.6,1.6,0.9,2.8,0.9C186.6,21.1,187.5,20.8,188.4,20.3z"/>
		</g>
		<rect x="43.4" y="28.5" class="st1" width="153.1" height="1.7"/>
	</g>
	<g>
		<path class="st0" d="M5,25.5L8.7,7.7l6.7,0c2.6,0,4.6,0.4,5.9,1.3c1.3,0.8,1.9,2,1.8,3.5c-0.1,1.9-1.4,3.2-3.6,4
			c0.8,0.2,1.5,0.7,1.9,1.3c0.5,0.6,0.7,1.4,0.6,2.3c-0.1,1.7-0.9,3-2.4,4c-1.5,0.9-3.5,1.4-6,1.4H5z M11.5,17.9l-0.9,4.2l3,0
			c0.9,0,1.7-0.2,2.3-0.6c0.6-0.4,1-0.9,1.1-1.5c0.3-1.4-0.3-2.1-1.8-2.1L11.5,17.9z M12.1,15.1l2.3,0c2.1,0,3.3-0.7,3.6-2.1
			c0.2-1.3-0.6-2-2.5-2l-2.6,0L12.1,15.1z"/>
		<path class="st0" d="M30.6,19.7l4-7.4h5.2l-9.1,15.2c-0.7,1.2-1.5,2.1-2.4,2.6c-0.9,0.5-2,0.8-3.2,0.8c-0.5,0-1.2-0.1-2.1-0.3
			l0.4-2.9H24c0.6,0,1.1-0.1,1.5-0.2c0.4-0.2,0.8-0.5,1.1-0.9l0.7-1.1l-2.5-13.1h4.9L30.6,19.7z"/>
	</g>
</g>
</svg>
